<svg width="40" height="40" viewBox="0 0 40 40" fill="none" xmlns="http://www.w3.org/2000/svg">
<mask id="mask0_36_538" style="mask-type:alpha" maskUnits="userSpaceOnUse" x="0" y="0" width="40" height="40">
<path d="M20 40C31.0457 40 40 31.0457 40 20C40 8.9543 31.0457 0 20 0C8.9543 0 0 8.9543 0 20C0 31.0457 8.9543 40 20 40Z" fill="white"/>
</mask>
<g mask="url(#mask0_36_538)">
<rect width="50" height="50" transform="translate(-5 -5)" fill="white"/>
<circle cx="20" cy="20" r="25" fill="#D7EEFF"/>
<rect x="-5" y="-5" width="50" height="50" fill="#DDDEE7"/>
<ellipse cx="20.0001" cy="15.1219" rx="7.92683" ry="7.92683" fill="white"/>
<path fill-rule="evenodd" clip-rule="evenodd" d="M38.8926 45H1.10706C1.10065 44.7975 1.09741 44.5942 1.09741 44.3901C1.09741 33.9506 9.56032 25.4877 19.9999 25.4877C30.4394 25.4877 38.9023 33.9506 38.9023 44.3901C38.9023 44.5942 38.8991 44.7975 38.8926 45Z" fill="white"/>
</g>
</svg>
