<svg width="16" height="560" viewBox="0 0 16 560" fill="none" xmlns="http://www.w3.org/2000/svg">
<rect x="1" y="3" width="14" height="1" fill="#9AA0B3"/>
<rect x="1" y="8" width="14" height="1" fill="#9AA0B3"/>
<rect x="1" y="13" width="14" height="1" fill="#9AA0B3"/>
<path d="M12.3536 22.8536C12.5488 22.6583 12.5488 22.3417 12.3536 22.1464C12.1583 21.9512 11.8417 21.9512 11.6464 22.1464L12.3536 22.8536ZM8 26.5L7.64645 26.8536C7.74021 26.9473 7.86739 27 8 27C8.13261 27 8.25979 26.9473 8.35355 26.8536L8 26.5ZM4.35355 22.1464C4.15829 21.9512 3.84171 21.9512 3.64645 22.1464C3.45118 22.3417 3.45118 22.6583 3.64645 22.8536L4.35355 22.1464ZM11.6464 22.1464L7.64645 26.1464L8.35355 26.8536L12.3536 22.8536L11.6464 22.1464ZM8.35355 26.1464L4.35355 22.1464L3.64645 22.8536L7.64645 26.8536L8.35355 26.1464Z" fill="#9AA0B3"/>
<path d="M11.8536 40.8536C12.0488 40.6583 12.0488 40.3417 11.8536 40.1464C11.6583 39.9512 11.3417 39.9512 11.1464 40.1464L11.8536 40.8536ZM8 44L7.64645 44.3536C7.74022 44.4473 7.86739 44.5 8 44.5C8.13261 44.5 8.25979 44.4473 8.35355 44.3536L8 44ZM4.85355 40.1464C4.65829 39.9512 4.34171 39.9512 4.14645 40.1464C3.95119 40.3417 3.95119 40.6583 4.14645 40.8536L4.85355 40.1464ZM11.1464 40.1464L7.64645 43.6464L8.35355 44.3536L11.8536 40.8536L11.1464 40.1464ZM8.35355 43.6464L4.85355 40.1464L4.14645 40.8536L7.64645 44.3536L8.35355 43.6464Z" fill="#9AA0B3"/>
<path d="M7.5 43.5C7.5 43.7761 7.72386 44 8 44C8.27614 44 8.5 43.7761 8.5 43.5H7.5ZM8.5 36.5C8.5 36.2239 8.27614 36 8 36C7.72386 36 7.5 36.2239 7.5 36.5H8.5ZM8.5 43.5V36.5H7.5V43.5H8.5Z" fill="#9AA0B3"/>
<circle cx="7.5" cy="53.5" r="0.5" fill="#9AA0B3"/>
<circle cx="7.5" cy="55.5" r="0.5" fill="#9AA0B3"/>
<circle cx="7.5" cy="57.5" r="0.5" fill="#9AA0B3"/>
<path d="M6.07692 70.0667L8 67L9.92308 70.0667L13 70.45L10.6923 72.75L11.4615 76.5833L8 75.05L4.53846 76.5833L5.30769 72.75L3 70.45L6.07692 70.0667Z" stroke="#9AA0B3" stroke-linecap="round" stroke-linejoin="round"/>
<path d="M4.01487 88.3333L4.73537 83.5H12.42L11.6995 88.3333H4.01487Z" stroke="#9AA0B3" stroke-linejoin="round"/>
<path d="M4.73913 83.4167L3 93.0001" stroke="#9AA0B3" stroke-linecap="round"/>
<path d="M3.64645 106.146C3.45118 106.342 3.45118 106.658 3.64645 106.854C3.84171 107.049 4.15829 107.049 4.35355 106.854L3.64645 106.146ZM8 102.5L8.35355 102.146C8.25979 102.053 8.13261 102 8 102C7.86739 102 7.74021 102.053 7.64645 102.146L8 102.5ZM11.6464 106.854C11.8417 107.049 12.1583 107.049 12.3536 106.854C12.5488 106.658 12.5488 106.342 12.3536 106.146L11.6464 106.854ZM4.35355 106.854L8.35355 102.854L7.64645 102.146L3.64645 106.146L4.35355 106.854ZM7.64645 102.854L11.6464 106.854L12.3536 106.146L8.35355 102.146L7.64645 102.854Z" fill="#9AA0B3"/>
<circle cx="8" cy="116" r="1" fill="#9AA0B3"/>
<circle cx="8" cy="120" r="1" fill="#9AA0B3"/>
<circle cx="8" cy="124" r="1" fill="#9AA0B3"/>
<path fill-rule="evenodd" clip-rule="evenodd" d="M14.4807 136.715C14.7303 136.266 14.7303 135.734 14.4807 135.285C13.7121 133.903 11.644 131 7.83393 131C4.02381 131 1.95573 133.903 1.1872 135.285C0.937598 135.734 0.937599 136.266 1.1872 136.715C1.95573 138.097 4.02381 141 7.83393 141C11.644 141 13.7121 138.097 14.4807 136.715ZM9.83393 136C9.83393 137.105 8.9385 138 7.83393 138C6.72936 138 5.83393 137.105 5.83393 136C5.83393 134.895 6.72936 134 7.83393 134C8.9385 134 9.83393 134.895 9.83393 136ZM10.8339 136C10.8339 137.657 9.49079 139 7.83393 139C6.17708 139 4.83393 137.657 4.83393 136C4.83393 134.343 6.17708 133 7.83393 133C9.49079 133 10.8339 134.343 10.8339 136Z" fill="#9AA0B3"/>
<path fill-rule="evenodd" clip-rule="evenodd" d="M14.4807 152.715C14.7303 152.266 14.7303 151.734 14.4807 151.285C13.7121 149.903 11.644 147 7.83393 147C4.02381 147 1.95573 149.903 1.1872 151.285C0.937598 151.734 0.937599 152.266 1.1872 152.715C1.95573 154.097 4.02381 157 7.83393 157C11.644 157 13.7121 154.097 14.4807 152.715ZM9.83393 152C9.83393 153.105 8.9385 154 7.83393 154C6.72936 154 5.83393 153.105 5.83393 152C5.83393 150.895 6.72936 150 7.83393 150C8.9385 150 9.83393 150.895 9.83393 152ZM10.8339 152C10.8339 153.657 9.49079 155 7.83393 155C6.17708 155 4.83393 153.657 4.83393 152C4.83393 150.343 6.17708 149 7.83393 149C9.49079 149 10.8339 150.343 10.8339 152Z" fill="#C9C9C9"/>
<path d="M13 146L2 158.5" stroke="#C9C9C9" stroke-linecap="round"/>
<path fill-rule="evenodd" clip-rule="evenodd" d="M4 163C2.89543 163 2 163.895 2 165V171C2 172.105 2.89543 173 4 173H12C13.1046 173 14 172.105 14 171V165C14 163.895 13.1046 163 12 163H4ZM4.3 165.6C4.07909 165.434 3.76569 165.479 3.6 165.7C3.43431 165.921 3.47909 166.234 3.7 166.4L7.7 169.4C7.87778 169.533 8.12222 169.533 8.3 169.4L12.3 166.4C12.5209 166.234 12.5657 165.921 12.4 165.7C12.2343 165.479 11.9209 165.434 11.7 165.6L8 168.375L4.3 165.6Z" fill="#C9C9C9"/>
<circle cx="8" cy="184" r="7" fill="#9AA0B3"/>
<path d="M5 181L11 187" stroke="white" stroke-linecap="round"/>
<path d="M5 187L11 181" stroke="white" stroke-linecap="round"/>
<path d="M4.22489 201.342L8.76361 196.803C9.37691 196.19 10.3539 196.138 11.0292 196.682V196.682C11.8148 197.315 11.8777 198.49 11.1641 199.204L5.61127 204.757C4.58358 205.784 2.93492 205.839 1.84176 204.881V204.881C0.641716 203.829 0.58081 201.982 1.70898 200.854L8.28683 194.276C9.75129 192.812 12.1257 192.812 13.5901 194.276V194.276C15.0546 195.741 15.0546 198.115 13.5901 199.58L7.97832 205.192" stroke="black" stroke-linecap="round"/>
<path d="M1 209L15 223M1 223L15 209" stroke="#202020" stroke-linecap="round"/>
<path d="M13 235.182V239H1V227H4.81818" stroke="#202020" stroke-linecap="round" stroke-linejoin="round"/>
<path d="M15 225L8 232" stroke="#202020" stroke-linecap="round"/>
<path d="M9 224.5C8.72386 224.5 8.5 224.724 8.5 225C8.5 225.276 8.72386 225.5 9 225.5V224.5ZM15 225H15.5V224.5H15V225ZM14.5 231C14.5 231.276 14.7239 231.5 15 231.5C15.2761 231.5 15.5 231.276 15.5 231H14.5ZM9 225.5H15V224.5H9V225.5ZM14.5 225V231H15.5V225H14.5Z" fill="#202020"/>
<path d="M14 241.5C14 241.224 13.7761 241 13.5 241C13.2239 241 13 241.224 13 241.5L14 241.5ZM13.5 245.5L13.5 246L14 246L14 245.5L13.5 245.5ZM9.5 245C9.22386 245 9 245.224 9 245.5C9 245.776 9.22386 246 9.5 246L9.5 245ZM13 241.5L13 245.5L14 245.5L14 241.5L13 241.5ZM13.5 245L9.5 245L9.5 246L13.5 246L13.5 245Z" fill="#5C72E7"/>
<path d="M2 254.5C2 254.776 2.22386 255 2.5 255C2.77614 255 3 254.776 3 254.5L2 254.5ZM2.5 250.5L2.5 250L2 250L2 250.5L2.5 250.5ZM6.5 251C6.77614 251 7 250.776 7 250.5C7 250.224 6.77614 250 6.5 250L6.5 251ZM3 254.5L3 250.5L2 250.5L2 254.5L3 254.5ZM2.5 251L6.5 251L6.5 250L2.5 250L2.5 251Z" fill="#5C72E7"/>
<path d="M2.08169 247.013C2.62657 243.745 5.71801 241.537 8.98661 242.082C10.7394 242.374 12.1872 243.398 13.0691 244.79" stroke="#5C72E7" stroke-linecap="round"/>
<path d="M13.9186 248.986C13.3737 252.255 10.2822 254.463 7.01363 253.918C5.26082 253.626 3.81301 252.602 2.93116 251.21" stroke="#5C72E7" stroke-linecap="round"/>
<path d="M3 266L2.64645 265.646L2.5286 265.764L2.50503 265.929L3 266ZM2.5 269.5L2.00503 269.429L1.91074 270.089L2.57071 269.995L2.5 269.5ZM6 269L6.07071 269.495L6.2357 269.471L6.35355 269.354L6 269ZM12.5 262.5L12.1464 262.146L12.5 262.5ZM9.14645 259.146L2.64645 265.646L3.35355 266.354L9.85355 259.854L9.14645 259.146ZM2.50503 265.929L2.00503 269.429L2.99497 269.571L3.49497 266.071L2.50503 265.929ZM2.57071 269.995L6.07071 269.495L5.92929 268.505L2.42929 269.005L2.57071 269.995ZM6.35355 269.354L12.8536 262.854L12.1464 262.146L5.64645 268.646L6.35355 269.354ZM12.8536 262.854C13.8772 261.83 13.8772 260.17 12.8536 259.146L12.1464 259.854C12.7796 260.487 12.7796 261.513 12.1464 262.146L12.8536 262.854ZM9.85355 259.854C10.4867 259.22 11.5133 259.22 12.1464 259.854L12.8536 259.146C11.8299 258.123 10.1701 258.123 9.14645 259.146L9.85355 259.854Z" fill="#202020"/>
<path d="M9 260L12 263" stroke="black"/>
<path d="M1 279L7 284.5L15 275" stroke="#5551FF" stroke-linecap="round"/>
<path d="M4 295.286L7.42857 298.429L12 293" stroke="#5551FF" stroke-linecap="round"/>
<path d="M3 307L13 317M3 317L13 307" stroke="#666666" stroke-linecap="round"/>
<path d="M5 325L11 331M5 331L11 325" stroke="#666666" stroke-linecap="round"/>
<path d="M9 347L9 347.667L9 349C9 349.552 8.55228 350 8 350L2 350C1.44771 350 0.999999 349.552 0.999999 349L1 339C1 338.448 1.44771 338 2 338L8 338C8.55228 338 9 338.448 9 339L9 340.667L9 341.333" stroke="white" stroke-linecap="round" stroke-linejoin="round"/>
<path d="M11.6667 347.333L15 344L11.6667 340.667" stroke="white" stroke-linecap="round" stroke-linejoin="round"/>
<path d="M7 344L14.3333 344" stroke="white" stroke-linecap="round" stroke-linejoin="round"/>
<path d="M15 360.353H11.15C10.569 360.353 10.1 360.826 10.1 361.412C10.1 361.998 9.631 362.471 9.05 362.471H6.95C6.369 362.471 5.9 361.998 5.9 361.412C5.9 360.826 5.431 360.353 4.85 360.353H1M2.155 355.101L1 360.325V364.588C1 365.365 1.63 366 2.4 366H13.6C14.37 366 15 365.365 15 364.588V360.402L13.845 355.108C13.705 354.459 13.138 354 12.48 354H3.52C2.869 354 2.302 354.459 2.155 355.101Z" stroke="#202020" stroke-linecap="round"/>
<circle cx="7.5" cy="375.5" r="7.5" fill="#5551FF"/>
<path d="M5 373L10 378M5 378L10 373" stroke="white" stroke-linecap="round"/>
<rect x="1.5" y="385.5" width="13" height="13" rx="1.5" stroke="#202020"/>
<path d="M1.5 395L5.5 391L9 394L14.5 389.5" stroke="#202020"/>
<circle cx="10" cy="389" r="1.5" stroke="#202020"/>
<path d="M4.85355 403.646C4.65829 403.451 4.34171 403.451 4.14645 403.646C3.95118 403.842 3.95118 404.158 4.14645 404.354L4.85355 403.646ZM8.5 408L8.85355 408.354C8.94732 408.26 9 408.133 9 408C9 407.867 8.94732 407.74 8.85355 407.646L8.5 408ZM4.14645 411.646C3.95118 411.842 3.95118 412.158 4.14645 412.354C4.34171 412.549 4.65829 412.549 4.85355 412.354L4.14645 411.646ZM4.14645 404.354L8.14645 408.354L8.85355 407.646L4.85355 403.646L4.14645 404.354ZM8.14645 407.646L4.14645 411.646L4.85355 412.354L8.85355 408.354L8.14645 407.646Z" fill="#9AA0B3"/>
<path d="M12 403L12 413" stroke="#9CA6B5" stroke-linecap="round"/>
<path d="M4.3913 425.261L9.47826 420.174C10.1266 419.526 11.1778 419.526 11.8261 420.174C12.4744 420.822 12.4744 421.873 11.8261 422.522L6.73913 427.609L4 428L4.3913 425.261Z" stroke="#9AA0B3"/>
<path d="M9 421L11 423" stroke="#9AA0B3"/>
<circle cx="8" cy="440" r="6.5" stroke="#202020"/>
<path d="M7.50934 436.795H8.51034V435.761H7.50934V436.795ZM7.49834 438.027V444H8.49934V438.027H7.49834Z" fill="#202020"/>
<circle cx="7.5" cy="455.5" r="6" stroke="#9AA0B3"/>
<path d="M12 460L15 463" stroke="#9AA0B3" stroke-linecap="round"/>
<path d="M2 465.5C2 465.224 2.22386 465 2.5 465C2.77614 465 3 465.224 3 465.5L2 465.5ZM2.5 469.5L2.5 470L2 470L2 469.5L2.5 469.5ZM6.5 469C6.77614 469 7 469.224 7 469.5C7 469.776 6.77614 470 6.5 470L6.5 469ZM3 465.5L3 469.5L2 469.5L2 465.5L3 465.5ZM2.5 469L6.5 469L6.5 470L2.5 470L2.5 469Z" fill="#666666"/>
<path d="M3 469.118C3.99581 467.26 5.92445 466 8.14039 466C11.3766 466 14 468.686 14 472C14 475.314 11.3766 478 8.14039 478C6.10226 478 4.30716 476.934 3.25739 475.318" stroke="#666666" stroke-linecap="round"/>
<path d="M4 492H12" stroke="#666666" stroke-linecap="round"/>
<path d="M1 504.5H15M1 504.5L4.29412 501M1 504.5L4.29412 508" stroke="#666666" stroke-linecap="round"/>
<path d="M15 504.5L0.999999 504.5M15 504.5L11.7059 508M15 504.5L11.7059 501" stroke="#666666" stroke-linecap="round"/>
<path d="M12.3536 518.854C12.5488 518.658 12.5488 518.342 12.3536 518.146C12.1583 517.951 11.8417 517.951 11.6464 518.146L12.3536 518.854ZM8 522.5L7.64645 522.854C7.74021 522.947 7.86739 523 8 523C8.13261 523 8.25979 522.947 8.35355 522.854L8 522.5ZM4.35355 518.146C4.15829 517.951 3.84171 517.951 3.64645 518.146C3.45118 518.342 3.45118 518.658 3.64645 518.854L4.35355 518.146ZM11.6464 518.146L7.64645 522.146L8.35355 522.854L12.3536 518.854L11.6464 518.146ZM8.35355 522.146L4.35355 518.146L3.64645 518.854L7.64645 522.854L8.35355 522.146Z" fill="white"/>
<path d="M6.07692 534.067L8 531L9.92308 534.067L13 534.45L10.6923 536.75L11.4615 540.583L8 539.05L4.53846 540.583L5.30769 536.75L3 534.45L6.07692 534.067Z" fill="#5551FF" stroke="#5551FF" stroke-linecap="round" stroke-linejoin="round"/>
<path d="M4.01487 552.333L4.73537 547.5H12.42L11.6995 552.333H4.01487Z" fill="#5551FF" stroke="#5551FF" stroke-linejoin="round"/>
<path d="M4.73913 547.417L3 557" stroke="#5551FF" stroke-linecap="round"/>
</svg>
