<svg width="16" height="628" viewBox="0 0 16 628" fill="none" xmlns="http://www.w3.org/2000/svg">
<rect x="1" y="3" width="14" height="1" fill="#9AA0B3"/>
<rect x="1" y="8" width="14" height="1" fill="#9AA0B3"/>
<rect x="1" y="13" width="14" height="1" fill="#9AA0B3"/>
<path d="M12.3536 23.8536C12.5488 23.6583 12.5488 23.3417 12.3536 23.1464C12.1583 22.9512 11.8417 22.9512 11.6464 23.1464L12.3536 23.8536ZM8 27.5L7.64645 27.8536C7.74021 27.9473 7.86739 28 8 28C8.13261 28 8.25979 27.9473 8.35355 27.8536L8 27.5ZM4.35355 23.1464C4.15829 22.9512 3.84171 22.9512 3.64645 23.1464C3.45118 23.3417 3.45118 23.6583 3.64645 23.8536L4.35355 23.1464ZM11.6464 23.1464L7.64645 27.1464L8.35355 27.8536L12.3536 23.8536L11.6464 23.1464ZM8.35355 27.1464L4.35355 23.1464L3.64645 23.8536L7.64645 27.8536L8.35355 27.1464Z" fill="#9AA0B3"/>
<path d="M11.8536 41.8536C12.0488 41.6583 12.0488 41.3417 11.8536 41.1464C11.6583 40.9512 11.3417 40.9512 11.1464 41.1464L11.8536 41.8536ZM8 45L7.64645 45.3536C7.74022 45.4473 7.86739 45.5 8 45.5C8.13261 45.5 8.25979 45.4473 8.35355 45.3536L8 45ZM4.85355 41.1464C4.65829 40.9512 4.34171 40.9512 4.14645 41.1464C3.95119 41.3417 3.95119 41.6583 4.14645 41.8536L4.85355 41.1464ZM11.1464 41.1464L7.64645 44.6464L8.35355 45.3536L11.8536 41.8536L11.1464 41.1464ZM8.35355 44.6464L4.85355 41.1464L4.14645 41.8536L7.64645 45.3536L8.35355 44.6464Z" fill="#9AA0B3"/>
<path d="M7.5 44.5C7.5 44.7761 7.72386 45 8 45C8.27614 45 8.5 44.7761 8.5 44.5H7.5ZM8.5 37.5C8.5 37.2239 8.27614 37 8 37C7.72386 37 7.5 37.2239 7.5 37.5H8.5ZM8.5 44.5V37.5H7.5V44.5H8.5Z" fill="#9AA0B3"/>
<circle cx="7.5" cy="54.5" r="0.5" fill="#9AA0B3"/>
<circle cx="7.5" cy="56.5" r="0.5" fill="#9AA0B3"/>
<circle cx="7.5" cy="58.5" r="0.5" fill="#9AA0B3"/>
<path d="M6.07692 71.0667L8 68L9.92308 71.0667L13 71.45L10.6923 73.75L11.4615 77.5833L8 76.05L4.53846 77.5833L5.30769 73.75L3 71.45L6.07692 71.0667Z" stroke="#9AA0B3" stroke-linecap="round" stroke-linejoin="round"/>
<path d="M4.01487 89.3333L4.73537 84.5H12.42L11.6995 89.3333H4.01487Z" stroke="#9AA0B3" stroke-linejoin="round"/>
<path d="M4.73913 84.4167L3 94.0001" stroke="#9AA0B3" stroke-linecap="round"/>
<path d="M3.64645 107.146C3.45118 107.342 3.45118 107.658 3.64645 107.854C3.84171 108.049 4.15829 108.049 4.35355 107.854L3.64645 107.146ZM8 103.5L8.35355 103.146C8.25979 103.053 8.13261 103 8 103C7.86739 103 7.74021 103.053 7.64645 103.146L8 103.5ZM11.6464 107.854C11.8417 108.049 12.1583 108.049 12.3536 107.854C12.5488 107.658 12.5488 107.342 12.3536 107.146L11.6464 107.854ZM4.35355 107.854L8.35355 103.854L7.64645 103.146L3.64645 107.146L4.35355 107.854ZM7.64645 103.854L11.6464 107.854L12.3536 107.146L8.35355 103.146L7.64645 103.854Z" fill="#9AA0B3"/>
<circle cx="8" cy="117" r="1" fill="#9AA0B3"/>
<circle cx="8" cy="121" r="1" fill="#9AA0B3"/>
<circle cx="8" cy="125" r="1" fill="#9AA0B3"/>
<path fill-rule="evenodd" clip-rule="evenodd" d="M14.4807 137.715C14.7303 137.266 14.7303 136.734 14.4807 136.285C13.7121 134.903 11.644 132 7.83393 132C4.02381 132 1.95573 134.903 1.1872 136.285C0.937598 136.734 0.937599 137.266 1.1872 137.715C1.95573 139.097 4.02381 142 7.83393 142C11.644 142 13.7121 139.097 14.4807 137.715ZM9.83393 137C9.83393 138.105 8.9385 139 7.83393 139C6.72936 139 5.83393 138.105 5.83393 137C5.83393 135.895 6.72936 135 7.83393 135C8.9385 135 9.83393 135.895 9.83393 137ZM10.8339 137C10.8339 138.657 9.49079 140 7.83393 140C6.17708 140 4.83393 138.657 4.83393 137C4.83393 135.343 6.17708 134 7.83393 134C9.49079 134 10.8339 135.343 10.8339 137Z" fill="#9AA0B3"/>
<path fill-rule="evenodd" clip-rule="evenodd" d="M14.4807 153.715C14.7303 153.266 14.7303 152.734 14.4807 152.285C13.7121 150.903 11.644 148 7.83393 148C4.02381 148 1.95573 150.903 1.1872 152.285C0.937598 152.734 0.937599 153.266 1.1872 153.715C1.95573 155.097 4.02381 158 7.83393 158C11.644 158 13.7121 155.097 14.4807 153.715ZM9.83393 153C9.83393 154.105 8.9385 155 7.83393 155C6.72936 155 5.83393 154.105 5.83393 153C5.83393 151.895 6.72936 151 7.83393 151C8.9385 151 9.83393 151.895 9.83393 153ZM10.8339 153C10.8339 154.657 9.49079 156 7.83393 156C6.17708 156 4.83393 154.657 4.83393 153C4.83393 151.343 6.17708 150 7.83393 150C9.49079 150 10.8339 151.343 10.8339 153Z" fill="#C9C9C9"/>
<path d="M13 147L2 159.5" stroke="#C9C9C9" stroke-linecap="round"/>
<path fill-rule="evenodd" clip-rule="evenodd" d="M4 164C2.89543 164 2 164.895 2 166V172C2 173.105 2.89543 174 4 174H12C13.1046 174 14 173.105 14 172V166C14 164.895 13.1046 164 12 164H4ZM4.3 166.6C4.07909 166.434 3.76569 166.479 3.6 166.7C3.43431 166.921 3.47909 167.234 3.7 167.4L7.7 170.4C7.87778 170.533 8.12222 170.533 8.3 170.4L12.3 167.4C12.5209 167.234 12.5657 166.921 12.4 166.7C12.2343 166.479 11.9209 166.434 11.7 166.6L8 169.375L4.3 166.6Z" fill="#C9C9C9"/>
<circle cx="8" cy="185" r="7" fill="#9AA0B3"/>
<path d="M5 182L11 188" stroke="white" stroke-linecap="round"/>
<path d="M5 188L11 182" stroke="white" stroke-linecap="round"/>
<path d="M4.22489 202.342L8.76361 197.803C9.37691 197.19 10.3539 197.138 11.0292 197.682V197.682C11.8148 198.315 11.8777 199.49 11.1641 200.204L5.61127 205.757C4.58358 206.784 2.93492 206.839 1.84176 205.881V205.881C0.641716 204.829 0.58081 202.982 1.70898 201.854L8.28683 195.276C9.75129 193.812 12.1257 193.812 13.5901 195.276V195.276C15.0546 196.741 15.0546 199.115 13.5901 200.58L7.97832 206.192" stroke="black" stroke-linecap="round"/>
<path d="M1 210L15 224M1 224L15 210" stroke="#202020" stroke-linecap="round"/>
<path d="M13 236.182V240H1V228H4.81818" stroke="#202020" stroke-linecap="round" stroke-linejoin="round"/>
<path d="M15 226L8 233" stroke="#202020" stroke-linecap="round"/>
<path d="M9 225.5C8.72386 225.5 8.5 225.724 8.5 226C8.5 226.276 8.72386 226.5 9 226.5V225.5ZM15 226H15.5V225.5H15V226ZM14.5 232C14.5 232.276 14.7239 232.5 15 232.5C15.2761 232.5 15.5 232.276 15.5 232H14.5ZM9 226.5H15V225.5H9V226.5ZM14.5 226V232H15.5V226H14.5Z" fill="#202020"/>
<path d="M14 242.5C14 242.224 13.7761 242 13.5 242C13.2239 242 13 242.224 13 242.5L14 242.5ZM13.5 246.5L13.5 247L14 247L14 246.5L13.5 246.5ZM9.5 246C9.22386 246 9 246.224 9 246.5C9 246.776 9.22386 247 9.5 247L9.5 246ZM13 242.5L13 246.5L14 246.5L14 242.5L13 242.5ZM13.5 246L9.5 246L9.5 247L13.5 247L13.5 246Z" fill="#5C72E7"/>
<path d="M2 255.5C2 255.776 2.22386 256 2.5 256C2.77614 256 3 255.776 3 255.5L2 255.5ZM2.5 251.5L2.5 251L2 251L2 251.5L2.5 251.5ZM6.5 252C6.77614 252 7 251.776 7 251.5C7 251.224 6.77614 251 6.5 251L6.5 252ZM3 255.5L3 251.5L2 251.5L2 255.5L3 255.5ZM2.5 252L6.5 252L6.5 251L2.5 251L2.5 252Z" fill="#5C72E7"/>
<path d="M2.08169 248.013C2.62657 244.745 5.71801 242.537 8.98661 243.082C10.7394 243.374 12.1872 244.398 13.0691 245.79" stroke="#5C72E7" stroke-linecap="round"/>
<path d="M13.9186 249.986C13.3737 253.255 10.2822 255.463 7.01363 254.918C5.26082 254.626 3.81301 253.602 2.93116 252.21" stroke="#5C72E7" stroke-linecap="round"/>
<path d="M3 267L2.64645 266.646L2.5286 266.764L2.50503 266.929L3 267ZM2.5 270.5L2.00503 270.429L1.91074 271.089L2.57071 270.995L2.5 270.5ZM6 270L6.07071 270.495L6.2357 270.471L6.35355 270.354L6 270ZM12.5 263.5L12.1464 263.146L12.5 263.5ZM9.14645 260.146L2.64645 266.646L3.35355 267.354L9.85355 260.854L9.14645 260.146ZM2.50503 266.929L2.00503 270.429L2.99497 270.571L3.49497 267.071L2.50503 266.929ZM2.57071 270.995L6.07071 270.495L5.92929 269.505L2.42929 270.005L2.57071 270.995ZM6.35355 270.354L12.8536 263.854L12.1464 263.146L5.64645 269.646L6.35355 270.354ZM12.8536 263.854C13.8772 262.83 13.8772 261.17 12.8536 260.146L12.1464 260.854C12.7796 261.487 12.7796 262.513 12.1464 263.146L12.8536 263.854ZM9.85355 260.854C10.4867 260.22 11.5133 260.22 12.1464 260.854L12.8536 260.146C11.8299 259.123 10.1701 259.123 9.14645 260.146L9.85355 260.854Z" fill="#202020"/>
<path d="M9 261L12 264" stroke="black"/>
<path d="M1 280L7 285.5L15 276" stroke="#5551FF" stroke-linecap="round"/>
<path d="M4 296.286L7.42857 299.429L12 294" stroke="#5551FF" stroke-linecap="round"/>
<path d="M3 308L13 318M3 318L13 308" stroke="#666666" stroke-linecap="round"/>
<path d="M5 326L11 332M5 332L11 326" stroke="#666666" stroke-linecap="round"/>
<path d="M9 348L9 348.667L9 350C9 350.552 8.55228 351 8 351L2 351C1.44771 351 0.999999 350.552 0.999999 350L1 340C1 339.448 1.44771 339 2 339L8 339C8.55228 339 9 339.448 9 340L9 341.667L9 342.333" stroke="white" stroke-linecap="round" stroke-linejoin="round"/>
<path d="M11.6667 348.333L15 345L11.6667 341.667" stroke="white" stroke-linecap="round" stroke-linejoin="round"/>
<path d="M7 345L14.3333 345" stroke="white" stroke-linecap="round" stroke-linejoin="round"/>
<path d="M15 361.353H11.15C10.569 361.353 10.1 361.826 10.1 362.412C10.1 362.998 9.631 363.471 9.05 363.471H6.95C6.369 363.471 5.9 362.998 5.9 362.412C5.9 361.826 5.431 361.353 4.85 361.353H1M2.155 356.101L1 361.325V365.588C1 366.365 1.63 367 2.4 367H13.6C14.37 367 15 366.365 15 365.588V361.402L13.845 356.108C13.705 355.459 13.138 355 12.48 355H3.52C2.869 355 2.302 355.459 2.155 356.101Z" stroke="#202020" stroke-linecap="round"/>
<circle cx="7.5" cy="376.5" r="7.5" fill="#5551FF"/>
<path d="M5 374L10 379M5 379L10 374" stroke="white" stroke-linecap="round"/>
<rect x="1.5" y="386.5" width="13" height="13" rx="1.5" stroke="#202020"/>
<path d="M1.5 396L5.5 392L9 395L14.5 390.5" stroke="#202020"/>
<circle cx="10" cy="390" r="1.5" stroke="#202020"/>
<path d="M4.85355 404.646C4.65829 404.451 4.34171 404.451 4.14645 404.646C3.95118 404.842 3.95118 405.158 4.14645 405.354L4.85355 404.646ZM8.5 409L8.85355 409.354C8.94732 409.26 9 409.133 9 409C9 408.867 8.94732 408.74 8.85355 408.646L8.5 409ZM4.14645 412.646C3.95118 412.842 3.95118 413.158 4.14645 413.354C4.34171 413.549 4.65829 413.549 4.85355 413.354L4.14645 412.646ZM4.14645 405.354L8.14645 409.354L8.85355 408.646L4.85355 404.646L4.14645 405.354ZM8.14645 408.646L4.14645 412.646L4.85355 413.354L8.85355 409.354L8.14645 408.646Z" fill="#9AA0B3"/>
<path d="M12 404L12 414" stroke="#9CA6B5" stroke-linecap="round"/>
<path d="M4.3913 426.261L4.03775 425.907L3.9199 426.025L3.89633 426.19L4.3913 426.261ZM4 429L3.50503 428.929L3.41074 429.589L4.07071 429.495L4 429ZM6.73913 428.609L6.80984 429.104L6.97483 429.08L7.09268 428.962L6.73913 428.609ZM9.12471 420.82L4.03775 425.907L4.74486 426.614L9.83181 421.527L9.12471 420.82ZM3.89633 426.19L3.50503 428.929L4.49497 429.071L4.88628 426.332L3.89633 426.19ZM4.07071 429.495L6.80984 429.104L6.66842 428.114L3.92929 428.505L4.07071 429.495ZM7.09268 428.962L12.1796 423.875L11.4725 423.168L6.38558 428.255L7.09268 428.962ZM12.1796 423.875C13.0232 423.032 13.0232 421.664 12.1796 420.82L11.4725 421.527C11.9256 421.981 11.9256 422.715 11.4725 423.168L12.1796 423.875ZM9.83181 421.527C10.2849 421.074 11.0195 421.074 11.4725 421.527L12.1796 420.82C11.336 419.977 9.9683 419.977 9.12471 420.82L9.83181 421.527Z" fill="#202020"/>
<path d="M9 422L11 424" stroke="black"/>
<circle cx="8" cy="441" r="6.5" stroke="#202020"/>
<path d="M7.50934 437.795H8.51034V436.761H7.50934V437.795ZM7.49834 439.027V445H8.49934V439.027H7.49834Z" fill="#202020"/>
<circle cx="7.5" cy="456.5" r="6" stroke="#9AA0B3"/>
<path d="M12 461L15 464" stroke="#9AA0B3" stroke-linecap="round"/>
<path d="M2 466.5C2 466.224 2.22386 466 2.5 466C2.77614 466 3 466.224 3 466.5L2 466.5ZM2.5 470.5L2.5 471L2 471L2 470.5L2.5 470.5ZM6.5 470C6.77614 470 7 470.224 7 470.5C7 470.776 6.77614 471 6.5 471L6.5 470ZM3 466.5L3 470.5L2 470.5L2 466.5L3 466.5ZM2.5 470L6.5 470L6.5 471L2.5 471L2.5 470Z" fill="#666666"/>
<path d="M3 470.118C3.99581 468.26 5.92445 467 8.14039 467C11.3766 467 14 469.686 14 473C14 476.314 11.3766 479 8.14039 479C6.10226 479 4.30716 477.934 3.25739 476.318" stroke="#666666" stroke-linecap="round"/>
<path d="M4 493H12" stroke="#666666" stroke-linecap="round"/>
<path d="M1 505.5H15M1 505.5L4.29412 502M1 505.5L4.29412 509" stroke="#666666" stroke-linecap="round"/>
<path d="M15 505.5L0.999999 505.5M15 505.5L11.7059 509M15 505.5L11.7059 502" stroke="#666666" stroke-linecap="round"/>
<path d="M12.3536 520.854C12.5488 520.658 12.5488 520.342 12.3536 520.146C12.1583 519.951 11.8417 519.951 11.6464 520.146L12.3536 520.854ZM8 524.5L7.64645 524.854C7.74021 524.947 7.86739 525 8 525C8.13261 525 8.25979 524.947 8.35355 524.854L8 524.5ZM4.35355 520.146C4.15829 519.951 3.84171 519.951 3.64645 520.146C3.45118 520.342 3.45118 520.658 3.64645 520.854L4.35355 520.146ZM11.6464 520.146L7.64645 524.146L8.35355 524.854L12.3536 520.854L11.6464 520.146ZM8.35355 524.146L4.35355 520.146L3.64645 520.854L7.64645 524.854L8.35355 524.146Z" fill="white"/>
<path d="M6.07692 536.067L8 533L9.92308 536.067L13 536.45L10.6923 538.75L11.4615 542.583L8 541.05L4.53846 542.583L5.30769 538.75L3 536.45L6.07692 536.067Z" fill="#5551FF" stroke="#5551FF" stroke-linecap="round" stroke-linejoin="round"/>
<path d="M4.01487 554.333L4.73537 549.5H12.42L11.6995 554.333H4.01487Z" fill="#5551FF" stroke="#5551FF" stroke-linejoin="round"/>
<path d="M4.73913 549.417L3 559" stroke="#5551FF" stroke-linecap="round"/>
<path d="M8.83325 573L8.83325 573.667L8.83325 575C8.83325 575.552 8.38554 576 7.83325 576L1.83325 576C1.28097 576 0.833251 575.552 0.833251 575L0.833251 565C0.833252 564.448 1.28097 564 1.83325 564L7.83325 564C8.38554 564 8.83325 564.448 8.83325 565L8.83325 566.667L8.83325 567.333" stroke="#666666" stroke-linecap="round" stroke-linejoin="round"/>
<path d="M11.4999 573.333L14.8333 570L11.4999 566.667" stroke="#666666" stroke-linecap="round" stroke-linejoin="round"/>
<path d="M6.83325 570L14.1666 570" stroke="#666666" stroke-linecap="round" stroke-linejoin="round"/>
<path d="M3 580V592H15" stroke="#666666"/>
<path d="M4.5 589.5L8.5 584.5L13.5 583.5" stroke="#666666"/>
<path d="M1 602.5H15" stroke="#666666" stroke-linecap="round"/>
<path d="M15 602.5L0.999999 602.5M15 602.5L11.7059 606M15 602.5L11.7059 599" stroke="#666666" stroke-linecap="round"/>
<path d="M6.29412 613.5L3 617L6.29412 620.5" stroke="#666666" stroke-linecap="round"/>
<path d="M3 617L6 617C9.31371 617 12 619.686 12 623L12 625" stroke="#666666" stroke-linecap="round"/>
</svg>
