<svg width="20" height="380" viewBox="0 0 20 380" fill="none" xmlns="http://www.w3.org/2000/svg">
<path fill-rule="evenodd" clip-rule="evenodd" d="M13.3509 8.32218L13.3064 8.39936L10.4744 13.9702C10.4578 14.0028 10.4397 14.0341 10.4201 14.0641C10.0671 14.7067 9.59744 15.3184 8.93481 15.7881C8.23769 16.2823 7.38785 16.5761 6.36275 16.6393C3.88348 16.792 2.02006 15.2029 1.36796 13.3809L1.36478 13.372C1.15847 12.7958 0.120885 9.89813 2.6499 7.45405C3.72452 6.41551 5.04052 6.08639 6.24105 6.17989C7.41719 6.2715 8.52232 6.7683 9.28472 7.4439C9.69677 7.80902 9.73347 8.44163 9.36671 8.85688C8.99994 9.27213 8.36859 9.31276 7.95655 8.94764C7.51668 8.55786 6.81895 8.23426 6.07428 8.17626C5.35401 8.12016 4.63127 8.31222 4.03186 8.89149C2.45031 10.4199 3.06422 12.1791 3.24871 12.6946C3.63845 13.7835 4.75753 14.7327 6.25232 14.6407C6.95246 14.5975 7.43262 14.4075 7.788 14.1556C8.13491 13.9097 8.41928 13.5646 8.66882 13.1115C8.67593 13.0956 8.6835 13.0797 8.69153 13.0639L11.5359 7.46881L11.5483 7.44431L11.5621 7.42052C11.5784 7.39246 11.5966 7.3607 11.6167 7.32566C11.8037 6.99961 12.1534 6.38998 12.6074 5.83713C13.0765 5.26593 13.8551 4.50405 14.9039 4.41956C15.7873 4.3484 16.4714 4.59178 17.107 5.06863C17.5638 5.41128 18.0299 5.90699 18.5351 6.44424L18.5351 6.44426C18.6373 6.55291 18.7411 6.66326 18.8467 6.77439C19.2271 7.17473 19.211 7.80769 18.8107 8.18814C18.4103 8.5686 17.7773 8.55247 17.3969 8.15213C17.266 8.01439 17.146 7.88719 17.035 7.76955L17.0343 7.76873L17.0342 7.76872C16.5306 7.23479 16.213 6.89812 15.9069 6.66853C15.6198 6.45316 15.4118 6.38512 15.0645 6.4131C14.8827 6.42775 14.564 6.60599 14.153 7.10647C13.8117 7.52199 13.5433 7.98816 13.3509 8.32218Z" fill="#7CC242"/>
<circle cx="15.5" cy="12.5" r="1.5" fill="#009AC8"/>
<circle cx="13" cy="15" r="1" fill="#1967AD"/>
<rect x="1" y="21" width="18" height="18" rx="2" fill="#4A9C70"/>
<path d="M6.44043 34H8.17627L9.91211 31.1362H10.0366L11.7725 34H13.5815L10.9302 29.9717L13.5522 26.0459H11.7944L10.1025 28.8877H9.97803L8.26416 26.0459H6.41846L9.08447 30.0376L6.44043 34Z" fill="#F6F6F6"/>
<rect x="1" y="41" width="18" height="18" rx="2" fill="#FF845E"/>
<path d="M11.1689 46.7979H10.2495L8.82764 53.2476H9.74707L11.1689 46.7979Z" fill="white"/>
<path d="M7 47L5 50L7 53" stroke="white"/>
<path d="M13 47L15 50L13 53" stroke="white"/>
<rect x="1" y="61" width="18" height="18" rx="2" fill="#71B1ED"/>
<path d="M5.90814 72.123C6.38894 72.123 6.80365 72.0182 7.15229 71.8086C7.50092 71.5967 7.76866 71.297 7.95551 70.9097C8.14464 70.5223 8.2392 70.0643 8.2392 69.5356V69.5288C8.2392 69.0002 8.14464 68.5422 7.95551 68.1548C7.76638 67.7674 7.4975 67.4689 7.14887 67.2593C6.80023 67.0496 6.38666 66.9448 5.90814 66.9448C5.43191 66.9448 5.01833 67.0496 4.66742 67.2593C4.31879 67.4689 4.04877 67.7674 3.85736 68.1548C3.66824 68.5399 3.57367 68.9979 3.57367 69.5288V69.5356C3.57367 70.0643 3.66824 70.5223 3.85736 70.9097C4.04649 71.297 4.31423 71.5967 4.66059 71.8086C5.00922 72.0182 5.42507 72.123 5.90814 72.123ZM5.90814 71.3608C5.61192 71.3608 5.35557 71.2856 5.1391 71.1353C4.92491 70.9849 4.75971 70.7729 4.6435 70.4995C4.52956 70.2261 4.4726 69.9048 4.4726 69.5356V69.5288C4.4726 69.1574 4.5307 68.8361 4.64691 68.5649C4.7654 68.2915 4.93174 68.0807 5.14594 67.9326C5.36241 67.7822 5.61648 67.707 5.90814 67.707C6.20209 67.707 6.45616 67.7822 6.67035 67.9326C6.88454 68.0807 7.04975 68.2915 7.16596 68.5649C7.28445 68.8361 7.34369 69.1574 7.34369 69.5288V69.5356C7.34369 69.9048 7.28445 70.2261 7.16596 70.4995C7.04975 70.7729 6.88454 70.9849 6.67035 71.1353C6.45616 71.2856 6.20209 71.3608 5.90814 71.3608ZM8.69092 72H10.54C11.0322 72 11.4504 71.9032 11.7944 71.7095C12.1408 71.5135 12.4051 71.231 12.5874 70.8618C12.7697 70.4904 12.8608 70.0415 12.8608 69.5151V69.5083C12.8608 68.9933 12.7686 68.5535 12.584 68.189C12.4017 67.8244 12.1374 67.5464 11.791 67.355C11.4469 67.1636 11.0299 67.0679 10.54 67.0679H8.69092V72ZM9.57275 71.2583V67.8096H10.4238C10.7451 67.8096 11.0208 67.8768 11.251 68.0112C11.4811 68.1457 11.6566 68.3416 11.7773 68.5991C11.9004 68.8543 11.9619 69.1619 11.9619 69.522V69.5288C11.9619 69.8979 11.9015 70.2113 11.7808 70.4688C11.6623 70.7262 11.488 70.9222 11.2578 71.0566C11.0277 71.1911 10.7497 71.2583 10.4238 71.2583H9.57275ZM13.3126 72H14.1944V69.9868H16.2623V69.269H14.1944V67.8096H16.4571V67.0679H13.3126V72Z" fill="white"/>
<path fill-rule="evenodd" clip-rule="evenodd" d="M10 80C3.45455 80 2 81.8571 2 81.8571V86.1429C2 86.1429 3.45455 88 10 88C16.5455 88 18 86.1429 18 86.1429V81.8571C18 81.8571 16.5455 80 10 80ZM10 83.7143C13.615 83.7143 16.5455 83 16.5455 82.2857C16.5455 82.049 13.615 81 10 81C6.38505 81 3.45459 82.049 3.45459 82.2857C3.5 83 6.38509 83.7143 10 83.7143Z" fill="#D8930B"/>
<path d="M2 88C2 88 3.45455 89.8333 10 89.8333C16.5455 89.8333 18 88 18 88V92.1667C18 92.1667 16.5455 94 10 94C3.45455 94 2 92.1667 2 92.1667V88Z" fill="#D8930B"/>
<path d="M2 94C2 94 3.45455 95.8333 10 95.8333C16.5455 95.8333 18 94 18 94V98.1667C18 98.1667 16.5455 100 10 100C3.45455 100 2 98.1667 2 98.1667V94Z" fill="#D8930B"/>
<rect x="1.5" y="101.5" width="17" height="17" rx="1.5" fill="#D3E0FF" stroke="#5C72E7" stroke-dasharray="2 2"/>
<path d="M4 108H8M16 108H8M8 108V116M8 108V103.5" stroke="#5C72E7"/>
<mask id="mask0_520_7121" style="mask-type:alpha" maskUnits="userSpaceOnUse" x="0" y="121" width="20" height="18">
<path d="M11.2812 121H8.48276C7.4142 121 6.42631 121.568 5.88923 122.492L0.869133 131.127C0.331193 132.052 0.326922 133.194 0.857924 134.123L2.37948 136.786C2.91361 137.72 3.90764 138.297 4.98421 138.297H15.0158C16.0924 138.297 17.0864 137.72 17.6205 136.786L19.1249 134.153C19.6651 133.208 19.6507 132.044 19.0874 131.112L13.8484 122.448C13.305 121.549 12.3313 121 11.2812 121Z" fill="white"/>
</mask>
<g mask="url(#mask0_520_7121)">
<path d="M6.75676 121L10 126.405L6.21622 132.622H0L6.75676 121Z" fill="#58A65C"/>
<path d="M10.0001 126.405L6.75684 121H12.9731L10.0001 126.405Z" fill="#3C7E40"/>
<path d="M3.37846 138.268L6.2163 132.622L13.7839 132.622L16.8215 138.309L3.37846 138.268Z" fill="#5382EB"/>
<path d="M6.21626 132.622L3.37837 138.268L5.75436e-05 132.622L6.21626 132.622Z" fill="#3569CC"/>
<path d="M20.1169 132.54L13.7837 132.622L9.99993 126.405L12.9729 121L20.1169 132.54Z" fill="#F2C75A"/>
<path d="M13.7837 132.622L20.1169 132.54L16.7567 138.297L13.7837 132.622Z" fill="#D85141"/>
</g>
<path fill-rule="evenodd" clip-rule="evenodd" d="M3 141C1.89543 141 1 141.895 1 143V157C1 158.105 1.89543 159 3 159H17C18.1046 159 19 158.105 19 157V143C19 141.895 18.1046 141 17 141H3ZM7 143H9V147L17 147V149L9 149V157H7V149H3V147L7 147V143Z" fill="#479A5F"/>
<path d="M18 167L2 167" stroke="#DEDFE0"/>
<path d="M6 178L6 164" stroke="#DEDFE0"/>
<path d="M10 178L10 164" stroke="#DEDFE0"/>
<path d="M14 178L14 164" stroke="#DEDFE0"/>
<path d="M18 171L2 171" stroke="#DEDFE0"/>
<path d="M18 175L2 175" stroke="#DEDFE0"/>
<path d="M2 163.5H18V177C18 177.828 17.3284 178.5 16.5 178.5H3.5C2.67157 178.5 2 177.828 2 177V163.5Z" stroke="#666666"/>
<rect x="5.5" y="167.5" width="5" height="5" fill="#D3E0FF" stroke="#5551FF"/>
<path d="M1.5 163C1.5 161.895 2.39543 161 3.5 161H16.5C17.6046 161 18.5 161.895 18.5 163V164H1.5V163Z" fill="#666666"/>
<path d="M18 187L2 187" stroke="#DEDFE0"/>
<path d="M6 198L6 184" stroke="#DEDFE0"/>
<path d="M10 198L10 184" stroke="#DEDFE0"/>
<path d="M14 198L14 184" stroke="#DEDFE0"/>
<path d="M18 191L2 191" stroke="#DEDFE0"/>
<path d="M18 195L2 195" stroke="#DEDFE0"/>
<path d="M2 183.5H18V197C18 197.828 17.3284 198.5 16.5 198.5H3.5C2.67157 198.5 2 197.828 2 197V183.5Z" stroke="#666666"/>
<path d="M1.5 183C1.5 181.895 2.39543 181 3.5 181H16.5C17.6046 181 18.5 181.895 18.5 183V184H1.5V183Z" fill="#666666"/>
<rect x="5.5" y="181.5" width="5" height="17" fill="#D3E0FF" stroke="#5551FF"/>
<path d="M6 209L2 209" stroke="#DEDFE0"/>
<path d="M6 214H2" stroke="#DEDFE0"/>
<path d="M10 208L10 205" stroke="#DEDFE0"/>
<path d="M14 208L14 205" stroke="#DEDFE0"/>
<path d="M6 218L6 204" stroke="#DEDFE0"/>
<path d="M18 208V203H2V216.5C2 217.605 2.89543 218.5 4 218.5H9" stroke="#666666" stroke-linecap="round"/>
<path d="M3.5 201.5H16.5C17.3284 201.5 18 202.172 18 203V205.5H2V203C2 202.172 2.67157 201.5 3.5 201.5Z" fill="#D3E0FF" stroke="#5551FF"/>
<path d="M10.6667 209L8 211.5M8 211.5L10.6667 214M8 211.5H18" stroke="#5551FF" stroke-linecap="round"/>
<path d="M15.3333 219L18 216.5M18 216.5L15.3333 214M18 216.5L8 216.5" stroke="#5551FF" stroke-linecap="round"/>
<rect x="9" y="223" width="9" height="2" fill="#666666"/>
<rect x="9" y="227" width="7" height="2" fill="#666666"/>
<rect x="9" y="231" width="5" height="2" fill="#666666"/>
<rect x="9" y="235" width="2" height="2" fill="#666666"/>
<path d="M7 225.667L4.5 223M4.5 223L2 225.667M4.5 223L4.5 233" stroke="#5551FF" stroke-linecap="round"/>
<path d="M2 234.333L4.5 237M4.5 237L7 234.333M4.5 237L4.5 227" stroke="#5551FF" stroke-linecap="round"/>
<path d="M17.5 250C17.5 250.318 17.3696 250.826 17.0561 251.431C16.7479 252.025 16.2807 252.678 15.6529 253.283C14.4015 254.49 12.5223 255.5 10 255.5C7.47769 255.5 5.59851 254.49 4.34707 253.283C3.71931 252.678 3.25208 252.025 2.94388 251.431C2.63044 250.826 2.5 250.318 2.5 250C2.5 249.682 2.63044 249.174 2.94388 248.569C3.25208 247.975 3.71931 247.322 4.34707 246.717C5.59851 245.51 7.47769 244.5 10 244.5C12.5223 244.5 14.4015 245.51 15.6529 246.717C16.2807 247.322 16.7479 247.975 17.0561 248.569C17.3696 249.174 17.5 249.682 17.5 250Z" stroke="#666666"/>
<circle cx="10" cy="250" r="3.5" fill="#D3E0FF" stroke="#5551FF"/>
<path d="M10 265.087L10.3536 264.733L10 264.38L9.64645 264.733L10 265.087ZM2.65217 272.435L2.29862 272.081L2.18077 272.199L2.1572 272.364L2.65217 272.435ZM2 277L1.50503 276.929L1.41074 277.589L2.07071 277.495L2 277ZM6.56522 276.348L6.63593 276.843L6.80092 276.819L6.91877 276.701L6.56522 276.348ZM13.913 269L14.2666 269.354L14.6202 269L14.2666 268.646L13.913 269ZM9.64645 264.733L2.29862 272.081L3.00573 272.788L10.3536 265.441L9.64645 264.733ZM2.1572 272.364L1.50503 276.929L2.49497 277.071L3.14715 272.505L2.1572 272.364ZM2.07071 277.495L6.63593 276.843L6.49451 275.853L1.92929 276.505L2.07071 277.495ZM6.91877 276.701L14.2666 269.354L13.5595 268.646L6.21166 275.994L6.91877 276.701ZM14.2666 268.646L10.3536 264.733L9.64645 265.441L13.5595 269.354L14.2666 268.646Z" fill="#666666"/>
<path d="M10 265.087L11.1304 263.957C12.211 262.876 13.9629 262.876 15.0435 263.957C16.124 265.037 16.124 266.789 15.0435 267.87L13.913 269L10 265.087Z" fill="#D3E0FF"/>
<path d="M11.1304 263.957L11.484 264.31L11.484 264.31L11.1304 263.957ZM10 265.087L9.64644 264.733L9.2929 265.087L9.64645 265.441L10 265.087ZM13.913 269L13.5595 269.354L13.913 269.707L14.2666 269.354L13.913 269ZM15.0435 267.87L15.397 268.223L15.397 268.223L15.0435 267.87ZM15.0435 263.957L14.6899 264.31L14.6899 264.31L15.0435 263.957ZM10.7769 263.603L9.64644 264.733L10.3536 265.441L11.484 264.31L10.7769 263.603ZM14.2666 269.354L15.397 268.223L14.6899 267.516L13.5595 268.646L14.2666 269.354ZM14.2666 268.646L10.3536 264.733L9.64645 265.441L13.5595 269.354L14.2666 268.646ZM15.397 268.223C16.6728 266.947 16.6728 264.879 15.397 263.603L14.6899 264.31C15.5752 265.195 15.5752 266.631 14.6899 267.516L15.397 268.223ZM11.484 264.31C12.3693 263.425 13.8046 263.425 14.6899 264.31L15.397 263.603C14.1212 262.327 12.0527 262.327 10.7769 263.603L11.484 264.31Z" fill="#5551FF"/>
<path d="M1.5 277.5H18" stroke="#5551FF"/>
<path d="M2 284H18" stroke="#666666"/>
<path d="M8.3667 284V282H11.6334V284" stroke="#666666"/>
<path d="M4 284L4 297C4 297.552 4.44772 298 5 298H15C15.5523 298 16 297.552 16 297V284" stroke="#666666"/>
<path d="M7.5 287V294" stroke="#666666"/>
<path d="M10 287V294" stroke="#666666"/>
<path d="M12.5 287V294" stroke="#666666"/>
<rect x="15.5" y="317.5" width="15" height="2" transform="rotate(-90 15.5 317.5)" stroke="#666666"/>
<rect x="7.5" y="317.5" width="15" height="2" transform="rotate(-90 7.5 317.5)" stroke="#DEDFE0"/>
<rect x="11.5" y="317.5" width="15" height="2" transform="rotate(-90 11.5 317.5)" stroke="#DEDFE0"/>
<path d="M6.66667 307L4 309.5M4 309.5L6.66667 312M4 309.5H14" stroke="#5551FF" stroke-linecap="round"/>
<rect x="2" y="302" width="1" height="16" fill="#5551FF"/>
<rect x="4.5" y="322.5" width="15" height="2" transform="rotate(90 4.5 322.5)" stroke="#666666"/>
<rect x="12.5" y="322.5" width="15" height="2" transform="rotate(90 12.5 322.5)" stroke="#DEDFE0"/>
<rect x="8.5" y="322.5" width="15" height="2" transform="rotate(90 8.5 322.5)" stroke="#DEDFE0"/>
<path d="M13.3333 333L16 330.5M16 330.5L13.3333 328M16 330.5L6 330.5" stroke="#5551FF" stroke-linecap="round"/>
<rect x="18" y="338" width="1" height="16" transform="rotate(-180 18 338)" fill="#5551FF"/>
<rect x="4.5" y="342.5" width="15" height="2" transform="rotate(90 4.5 342.5)" stroke="#666666"/>
<rect x="17.5" y="342.5" width="15" height="2" transform="rotate(90 17.5 342.5)" stroke="#DEDFE0"/>
<rect x="13" y="358" width="1" height="16" transform="rotate(-180 13 358)" fill="#5551FF"/>
<rect x="9.5" y="357.5" width="2" height="15" transform="rotate(-180 9.5 357.5)" stroke="#DEDFE0"/>
<path d="M7.83333 353L10.5 350.5M10.5 350.5L7.83333 348M10.5 350.5L6 350.5" stroke="#5551FF" stroke-linecap="round"/>
<rect x="15.5" y="377.5" width="15" height="2" transform="rotate(-90 15.5 377.5)" stroke="#666666"/>
<rect x="2.5" y="377.5" width="15" height="2" transform="rotate(-90 2.5 377.5)" stroke="#DEDFE0"/>
<rect x="8" y="378" width="1" height="16" transform="rotate(-180 8 378)" fill="#5551FF"/>
<rect x="10.5" y="362.5" width="2" height="15" stroke="#DEDFE0"/>
<path d="M12.1667 367L9.5 369.5M9.5 369.5L12.1667 372M9.5 369.5L14 369.5" stroke="#5551FF" stroke-linecap="round"/>
</svg>
