<svg width="16" height="16" viewBox="0 0 16 16" fill="none" xmlns="http://www.w3.org/2000/svg">
<path fill-rule="evenodd" clip-rule="evenodd" d="M14.4807 8.71472C14.7303 8.2659 14.7303 7.73409 14.4807 7.28528C13.7121 5.9034 11.644 3 7.83393 3C4.02381 3 1.95573 5.9034 1.1872 7.28528C0.937598 7.7341 0.937599 8.26591 1.1872 8.71472C1.95573 10.0966 4.02381 13 7.83393 13C11.644 13 13.7121 10.0966 14.4807 8.71472ZM9.83393 8C9.83393 9.10457 8.9385 10 7.83393 10C6.72936 10 5.83393 9.10457 5.83393 8C5.83393 6.89543 6.72936 6 7.83393 6C8.9385 6 9.83393 6.89543 9.83393 8ZM10.8339 8C10.8339 9.65685 9.49079 11 7.83393 11C6.17708 11 4.83393 9.65685 4.83393 8C4.83393 6.34315 6.17708 5 7.83393 5C9.49079 5 10.8339 6.34315 10.8339 8Z" fill="#9AA0B3"/>
</svg>
