<svg width="16" height="16" viewBox="0 0 16 16" fill="none" xmlns="http://www.w3.org/2000/svg">
<path d="M11.1464 3.64645C11.3417 3.45118 11.6583 3.45118 11.8536 3.64645C12.0488 3.84171 12.0488 4.15829 11.8536 4.35355L11.1464 3.64645ZM7.5 8L7.14645 8.35355C7.05268 8.25979 7 8.13261 7 8C7 7.86739 7.05268 7.74021 7.14645 7.64645L7.5 8ZM11.8536 11.6464C12.0488 11.8417 12.0488 12.1583 11.8536 12.3536C11.6583 12.5488 11.3417 12.5488 11.1464 12.3536L11.8536 11.6464ZM11.8536 4.35355L7.85355 8.35355L7.14645 7.64645L11.1464 3.64645L11.8536 4.35355ZM7.85355 7.64645L11.8536 11.6464L11.1464 12.3536L7.14645 8.35355L7.85355 7.64645Z" fill="#9AA0B3"/>
<path d="M4 3L4 13" stroke="#9CA6B5" stroke-linecap="round"/>
</svg>
