<svg width="16" height="16" viewBox="0 0 16 16" fill="none" xmlns="http://www.w3.org/2000/svg">
<path d="M3 10L2.64645 9.64645L2.5286 9.7643L2.50503 9.92929L3 10ZM2.5 13.5L2.00503 13.4293L1.91074 14.0893L2.57071 13.995L2.5 13.5ZM6 13L6.07071 13.495L6.2357 13.4714L6.35355 13.3536L6 13ZM12.5 6.5L12.1464 6.14644L12.5 6.5ZM9.14645 3.14645L2.64645 9.64645L3.35355 10.3536L9.85355 3.85355L9.14645 3.14645ZM2.50503 9.92929L2.00503 13.4293L2.99497 13.5707L3.49497 10.0707L2.50503 9.92929ZM2.57071 13.995L6.07071 13.495L5.92929 12.505L2.42929 13.005L2.57071 13.995ZM6.35355 13.3536L12.8536 6.85355L12.1464 6.14644L5.64645 12.6464L6.35355 13.3536ZM12.8536 6.85355C13.8772 5.82986 13.8772 4.17014 12.8536 3.14645L12.1464 3.85355C12.7796 4.48672 12.7796 5.51328 12.1464 6.14644L12.8536 6.85355ZM9.85355 3.85355C10.4867 3.22039 11.5133 3.22039 12.1464 3.85355L12.8536 3.14645C11.8299 2.12276 10.1701 2.12276 9.14645 3.14645L9.85355 3.85355Z" fill="#202020"/>
<path d="M9 4L12 7" stroke="black"/>
</svg>
