<svg width="16" height="16" viewBox="0 0 16 16" fill="none" xmlns="http://www.w3.org/2000/svg">
<path d="M14 1.5C14 1.22386 13.7761 1 13.5 1C13.2239 1 13 1.22386 13 1.5L14 1.5ZM13.5 5.5L13.5 6L14 6L14 5.5L13.5 5.5ZM9.5 5C9.22386 5 9 5.22386 9 5.5C9 5.77614 9.22386 6 9.5 6L9.5 5ZM13 1.5L13 5.5L14 5.5L14 1.5L13 1.5ZM13.5 5L9.5 5L9.5 6L13.5 6L13.5 5Z" fill="#666666"/>
<path d="M2 14.5C2 14.7761 2.22386 15 2.5 15C2.77614 15 3 14.7761 3 14.5L2 14.5ZM2.5 10.5L2.5 10L2 10L2 10.5L2.5 10.5ZM6.5 11C6.77614 11 7 10.7761 7 10.5C7 10.2239 6.77614 10 6.5 10L6.5 11ZM3 14.5L3 10.5L2 10.5L2 14.5L3 14.5ZM2.5 11L6.5 11L6.5 10L2.5 10L2.5 11Z" fill="#666666"/>
<path d="M2.08169 7.01339C2.62657 3.74478 5.71801 1.53677 8.98661 2.08164C10.7394 2.37384 12.1872 3.39835 13.0691 4.78979" stroke="#666666" stroke-linecap="round"/>
<path d="M13.9186 8.98661C13.3737 12.2552 10.2822 14.4632 7.01363 13.9184C5.26082 13.6262 3.81301 12.6016 2.93116 11.2102" stroke="#666666" stroke-linecap="round"/>
</svg>
