<svg width="16" height="16" viewBox="0 0 16 16" fill="none" xmlns="http://www.w3.org/2000/svg">
<path d="M4.85355 3.64645C4.65829 3.45118 4.34171 3.45118 4.14645 3.64645C3.95118 3.84171 3.95118 4.15829 4.14645 4.35355L4.85355 3.64645ZM8.5 8L8.85355 8.35355C8.94732 8.25979 9 8.13261 9 8C9 7.86739 8.94732 7.74021 8.85355 7.64645L8.5 8ZM4.14645 11.6464C3.95118 11.8417 3.95118 12.1583 4.14645 12.3536C4.34171 12.5488 4.65829 12.5488 4.85355 12.3536L4.14645 11.6464ZM4.14645 4.35355L8.14645 8.35355L8.85355 7.64645L4.85355 3.64645L4.14645 4.35355ZM8.14645 7.64645L4.14645 11.6464L4.85355 12.3536L8.85355 8.35355L8.14645 7.64645Z" fill="#9AA0B3"/>
<path d="M12 3L12 13" stroke="#9CA6B5" stroke-linecap="round"/>
</svg>
