<svg width="16" height="16" viewBox="0 0 16 16" fill="none" xmlns="http://www.w3.org/2000/svg">
<path d="M3.64645 10.1464C3.45118 10.3417 3.45118 10.6583 3.64645 10.8536C3.84171 11.0488 4.15829 11.0488 4.35355 10.8536L3.64645 10.1464ZM8 6.5L8.35355 6.14645C8.25979 6.05268 8.13261 6 8 6C7.86739 6 7.74021 6.05268 7.64645 6.14645L8 6.5ZM11.6464 10.8536C11.8417 11.0488 12.1583 11.0488 12.3536 10.8536C12.5488 10.6583 12.5488 10.3417 12.3536 10.1464L11.6464 10.8536ZM4.35355 10.8536L8.35355 6.85355L7.64645 6.14645L3.64645 10.1464L4.35355 10.8536ZM7.64645 6.85355L11.6464 10.8536L12.3536 10.1464L8.35355 6.14645L7.64645 6.85355Z" fill="#9AA0B3"/>
</svg>
