<svg width="16" height="16" viewBox="0 0 16 16" fill="none" xmlns="http://www.w3.org/2000/svg">
<path d="M13 11.1818V15H1V3H4.81818" stroke="#202020" stroke-linecap="round" stroke-linejoin="round"/>
<path d="M15 1L8 8" stroke="#202020" stroke-linecap="round"/>
<path d="M9 0.5C8.72386 0.5 8.5 0.723858 8.5 1C8.5 1.27614 8.72386 1.5 9 1.5V0.5ZM15 1H15.5V0.5H15V1ZM14.5 7C14.5 7.27614 14.7239 7.5 15 7.5C15.2761 7.5 15.5 7.27614 15.5 7H14.5ZM9 1.5H15V0.5H9V1.5ZM14.5 1V7H15.5V1H14.5Z" fill="#202020"/>
</svg>
