<svg width="16" height="16" viewBox="0 0 16 16" fill="none" xmlns="http://www.w3.org/2000/svg">
<path d="M12.3536 6.85355C12.5488 6.65829 12.5488 6.34171 12.3536 6.14645C12.1583 5.95118 11.8417 5.95118 11.6464 6.14645L12.3536 6.85355ZM8 10.5L7.64645 10.8536C7.74021 10.9473 7.86739 11 8 11C8.13261 11 8.25979 10.9473 8.35355 10.8536L8 10.5ZM4.35355 6.14645C4.15829 5.95118 3.84171 5.95118 3.64645 6.14645C3.45118 6.34171 3.45118 6.65829 3.64645 6.85355L4.35355 6.14645ZM11.6464 6.14645L7.64645 10.1464L8.35355 10.8536L12.3536 6.85355L11.6464 6.14645ZM8.35355 10.1464L4.35355 6.14645L3.64645 6.85355L7.64645 10.8536L8.35355 10.1464Z" fill="#9AA0B3"/>
</svg>
