<svg width="16" height="16" viewBox="0 0 16 16" fill="none" xmlns="http://www.w3.org/2000/svg">
<rect x="0.5" y="0.5" width="15" height="15" rx="1.5" fill="white"/>
<path d="M4.3913 9.26087L4.03775 8.90732L3.9199 9.02517L3.89633 9.19016L4.3913 9.26087ZM4 12L3.50503 11.9293L3.41074 12.5893L4.07071 12.495L4 12ZM6.73913 11.6087L6.80984 12.1037L6.97483 12.0801L7.09268 11.9622L6.73913 11.6087ZM9.12471 3.82036L4.03775 8.90732L4.74486 9.61442L9.83181 4.52747L9.12471 3.82036ZM3.89633 9.19016L3.50503 11.9293L4.49497 12.0707L4.88628 9.33158L3.89633 9.19016ZM4.07071 12.495L6.80984 12.1037L6.66842 11.1137L3.92929 11.505L4.07071 12.495ZM7.09268 11.9622L12.1796 6.87529L11.4725 6.16818L6.38558 11.2551L7.09268 11.9622ZM12.1796 6.87529C13.0232 6.03169 13.0232 4.66396 12.1796 3.82036L11.4725 4.52747C11.9256 4.98054 11.9256 5.71511 11.4725 6.16818L12.1796 6.87529ZM9.83181 4.52747C10.2849 4.07439 11.0195 4.07439 11.4725 4.52747L12.1796 3.82036C11.336 2.97676 9.9683 2.97676 9.12471 3.82036L9.83181 4.52747Z" fill="#9AA0B3"/>
<path d="M9 5L11 7" stroke="#9AA0B3"/>
<rect x="0.5" y="0.5" width="15" height="15" rx="1.5" stroke="#DEDFE0"/>
</svg>
