<svg width="32" height="32" viewBox="0 0 32 32" fill="none" xmlns="http://www.w3.org/2000/svg">
<path d="M8 9H12.2222V7H8V9ZM14.8889 11.6667H24V9.66667H14.8889V11.6667ZM25 12.6667V22H27V12.6667H25ZM24 23H8V25H24V23ZM7 22V10H5V22H7ZM8 23C7.44772 23 7 22.5523 7 22H5C5 23.6569 6.34315 25 8 25V23ZM25 22C25 22.5523 24.5523 23 24 23V25C25.6569 25 27 23.6569 27 22H25ZM24 11.6667C24.5523 11.6667 25 12.1144 25 12.6667H27C27 11.0098 25.6569 9.66667 24 9.66667V11.6667ZM13 9.77778C13 10.821 13.8457 11.6667 14.8889 11.6667V9.66667C14.9503 9.66667 15 9.71641 15 9.77778H13ZM12.2222 9C12.6518 9 13 9.34822 13 9.77778H15C15 8.24365 13.7563 7 12.2222 7V9ZM8 7C6.34315 7 5 8.34315 5 10H7C7 9.44772 7.44772 9 8 9V7Z" fill="#9AA0B3"/>
<path d="M17 6L17 17" stroke="#9AA0B3" stroke-width="2" stroke-linecap="round"/>
<path d="M20 14L17 17L14 14" stroke="#9AA0B3" stroke-width="2" stroke-linecap="round" stroke-linejoin="round"/>
</svg>
