<svg width="32" height="32" viewBox="0 0 32 32" fill="none" xmlns="http://www.w3.org/2000/svg">
<path d="M8.40039 11C8.40039 11.5523 8.84811 12 9.40039 12C9.95268 12 10.4004 11.5523 10.4004 11H8.40039ZM23.0005 20C22.4482 20 22.0005 20.4477 22.0005 21C22.0005 21.5523 22.4482 22 23.0005 22V20ZM11.4004 8H15.0448V6H11.4004V8ZM17.3782 10.3333H25.4004V8.33333H17.3782V10.3333ZM26.4004 11.3333V19H28.4004V11.3333H26.4004ZM10.4004 11V9H8.40039V11H10.4004ZM25.4004 20H23.0005V22H25.4004V20ZM26.4004 19C26.4004 19.5523 25.9527 20 25.4004 20V22C27.0572 22 28.4004 20.6569 28.4004 19H26.4004ZM25.4004 10.3333C25.9527 10.3333 26.4004 10.781 26.4004 11.3333H28.4004C28.4004 9.67648 27.0572 8.33333 25.4004 8.33333V10.3333ZM15.6004 8.55556C15.6004 9.53739 16.3963 10.3333 17.3782 10.3333V8.33333C17.5009 8.33333 17.6004 8.43283 17.6004 8.55556H15.6004ZM15.0448 8C15.3517 8 15.6004 8.24873 15.6004 8.55556H17.6004C17.6004 7.14416 16.4562 6 15.0448 6V8ZM11.4004 6C9.74354 6 8.40039 7.34315 8.40039 9H10.4004C10.4004 8.44772 10.8481 8 11.4004 8V6Z" fill="#9AA0B3"/>
<path d="M7 12.3999H10.6444V10.3999H7V12.3999ZM12.9778 14.7332H21V12.7332H12.9778V14.7332ZM22 15.7332V23.3999H24V15.7332H22ZM21 24.3999H7V26.3999H21V24.3999ZM6 23.3999V13.3999H4V23.3999H6ZM7 24.3999C6.44772 24.3999 6 23.9522 6 23.3999H4C4 25.0568 5.34315 26.3999 7 26.3999V24.3999ZM22 23.3999C22 23.9522 21.5523 24.3999 21 24.3999V26.3999C22.6569 26.3999 24 25.0568 24 23.3999H22ZM21 14.7332C21.5523 14.7332 22 15.181 22 15.7332H24C24 14.0764 22.6569 12.7332 21 12.7332V14.7332ZM11.2 12.9555C11.2 13.9373 11.9959 14.7332 12.9778 14.7332V12.7332C13.1005 12.7332 13.2 12.8327 13.2 12.9555H11.2ZM10.6444 12.3999C10.9513 12.3999 11.2 12.6486 11.2 12.9555H13.2C13.2 11.5441 12.0558 10.3999 10.6444 10.3999V12.3999ZM7 10.3999C5.34315 10.3999 4 11.743 4 13.3999H6C6 12.8476 6.44772 12.3999 7 12.3999V10.3999Z" fill="#9AA0B3"/>
</svg>
