<svg width="20" height="20" viewBox="0 0 20 20" fill="none" xmlns="http://www.w3.org/2000/svg">
<path fill-rule="evenodd" clip-rule="evenodd" d="M13.3508 8.32213L13.3063 8.39932L10.4743 13.9702C10.4577 14.0028 10.4395 14.0341 10.42 14.0641C10.067 14.7067 9.59731 15.3184 8.93469 15.7881C8.23757 16.2822 7.38773 16.5761 6.36263 16.6392C3.88336 16.7919 2.01994 15.2028 1.36783 13.3808L1.36466 13.3719C1.15834 12.7958 0.120763 9.89808 2.64978 7.454C3.7244 6.41547 5.0404 6.08634 6.24093 6.17985C7.41707 6.27145 8.52219 6.76826 9.2846 7.44385C9.69664 7.80897 9.73335 8.44159 9.36658 8.85683C8.99982 9.27208 8.36847 9.31271 7.95643 8.94759C7.51656 8.55781 6.81883 8.23421 6.07416 8.17621C5.35389 8.12011 4.63115 8.31217 4.03174 8.89145C2.45019 10.4199 3.0641 12.179 3.24859 12.6945C3.63833 13.7835 4.7574 14.7327 6.2522 14.6406C6.95234 14.5975 7.4325 14.4075 7.78788 14.1556C8.13479 13.9096 8.41916 13.5645 8.6687 13.1115C8.67581 13.0955 8.68338 13.0796 8.6914 13.0638L11.5358 7.46877L11.5482 7.44426L11.562 7.42047C11.5783 7.39241 11.5965 7.36065 11.6166 7.32562C11.8036 6.99957 12.1532 6.38994 12.6073 5.83709C13.0764 5.26588 13.8549 4.504 14.9038 4.41951C15.7871 4.34835 16.4712 4.59174 17.1069 5.06859C17.5637 5.41123 18.0298 5.90694 18.535 6.44419L18.535 6.44421C18.6372 6.55287 18.7409 6.66322 18.8465 6.77434C19.227 7.17468 19.2109 7.80764 18.8105 8.1881C18.4102 8.56855 17.7772 8.55243 17.3968 8.15208C17.2659 8.01434 17.1459 7.88714 17.0349 7.7695L17.0341 7.76869L17.0341 7.76867C16.5304 7.23474 16.2128 6.89808 15.9068 6.66848C15.6197 6.45311 15.4116 6.38508 15.0644 6.41305C14.8825 6.4277 14.5639 6.60594 14.1528 7.10643C13.8116 7.52194 13.5431 7.98811 13.3508 8.32213Z" fill="#7CC242"/>
<circle cx="15.5" cy="12.5" r="1.5" fill="#009AC8"/>
<circle cx="13" cy="15" r="1" fill="#1967AD"/>
</svg>
