<svg width="20" height="20" viewBox="0 0 20 20" fill="none" xmlns="http://www.w3.org/2000/svg">
<path d="M18 7L2 7" stroke="#DEDFE0"/>
<path d="M6 18L6 4" stroke="#DEDFE0"/>
<path d="M10 18L10 4" stroke="#DEDFE0"/>
<path d="M14 18L14 4" stroke="#DEDFE0"/>
<path d="M18 11L2 11" stroke="#DEDFE0"/>
<path d="M18 15L2 15" stroke="#DEDFE0"/>
<path d="M2 3.5H18V17C18 17.8284 17.3284 18.5 16.5 18.5H3.5C2.67157 18.5 2 17.8284 2 17V3.5Z" stroke="#666666"/>
<path d="M1.5 3C1.5 1.89543 2.39543 1 3.5 1H16.5C17.6046 1 18.5 1.89543 18.5 3V4H1.5V3Z" fill="#666666"/>
<rect x="5.5" y="1.5" width="5" height="17" fill="#D3E0FF" stroke="#5551FF"/>
</svg>
