<svg width="20" height="20" viewBox="0 0 20 20" fill="none" xmlns="http://www.w3.org/2000/svg">
<rect x="1.5" y="18.5" width="17" height="17" rx="3.5" transform="rotate(-90 1.5 18.5)" fill="#F8F8F8" stroke="#DEDFE0"/>
<path d="M12.1094 15C12.1094 14.7708 12.026 14.6406 11.8594 14.6094C11.8073 14.599 11.7552 14.5938 11.7031 14.5938H10.6406V6.03125H11.5469C12.3906 6.03125 12.9531 6.54167 13.2344 7.5625C13.2344 7.60417 13.2396 7.63542 13.25 7.65625L13.5 8.70312H13.9375L13.8594 5.625H6.14062L6.0625 8.70312H6.5L6.75 7.65625C7.08333 6.63542 7.65104 6.09375 8.45312 6.03125H9.29688V14.5938H7.8125V15H12.1094Z" fill="#5551FF"/>
</svg>
