<svg width="20" height="20" viewBox="0 0 20 20" fill="none" xmlns="http://www.w3.org/2000/svg">
<rect x="1" y="1" width="18" height="18" rx="2" fill="#71B1ED"/>
<path d="M5.90814 12.123C6.38894 12.123 6.80365 12.0182 7.15229 11.8086C7.50092 11.5967 7.76866 11.297 7.95551 10.9097C8.14464 10.5223 8.2392 10.0643 8.2392 9.53564V9.52881C8.2392 9.00016 8.14464 8.54215 7.95551 8.15479C7.76638 7.76742 7.4975 7.46891 7.14887 7.25928C6.80023 7.04964 6.38666 6.94482 5.90814 6.94482C5.43191 6.94482 5.01833 7.04964 4.66742 7.25928C4.31879 7.46891 4.04877 7.76742 3.85736 8.15479C3.66824 8.53988 3.57367 8.99788 3.57367 9.52881V9.53564C3.57367 10.0643 3.66824 10.5223 3.85736 10.9097C4.04649 11.297 4.31423 11.5967 4.66059 11.8086C5.00922 12.0182 5.42507 12.123 5.90814 12.123ZM5.90814 11.3608C5.61192 11.3608 5.35557 11.2856 5.1391 11.1353C4.92491 10.9849 4.75971 10.7729 4.6435 10.4995C4.52956 10.2261 4.4726 9.90479 4.4726 9.53564V9.52881C4.4726 9.15739 4.5307 8.8361 4.64691 8.56494C4.7654 8.2915 4.93174 8.08073 5.14594 7.93262C5.36241 7.78223 5.61648 7.70703 5.90814 7.70703C6.20209 7.70703 6.45616 7.78223 6.67035 7.93262C6.88454 8.08073 7.04975 8.2915 7.16596 8.56494C7.28445 8.8361 7.34369 9.15739 7.34369 9.52881V9.53564C7.34369 9.90479 7.28445 10.2261 7.16596 10.4995C7.04975 10.7729 6.88454 10.9849 6.67035 11.1353C6.45616 11.2856 6.20209 11.3608 5.90814 11.3608ZM8.69092 12H10.54C11.0322 12 11.4504 11.9032 11.7944 11.7095C12.1408 11.5135 12.4051 11.231 12.5874 10.8618C12.7697 10.4904 12.8608 10.0415 12.8608 9.51514V9.5083C12.8608 8.99333 12.7686 8.55355 12.584 8.18896C12.4017 7.82438 12.1374 7.54639 11.791 7.35498C11.4469 7.16357 11.0299 7.06787 10.54 7.06787H8.69092V12ZM9.57275 11.2583V7.80957H10.4238C10.7451 7.80957 11.0208 7.87679 11.251 8.01123C11.4811 8.14567 11.6566 8.34163 11.7773 8.59912C11.9004 8.85433 11.9619 9.16195 11.9619 9.52197V9.52881C11.9619 9.89795 11.9015 10.2113 11.7808 10.4688C11.6623 10.7262 11.488 10.9222 11.2578 11.0566C11.0277 11.1911 10.7497 11.2583 10.4238 11.2583H9.57275ZM13.3126 12H14.1944V9.98682H16.2623V9.26904H14.1944V7.80957H16.4571V7.06787H13.3126V12Z" fill="white"/>
</svg>
