<svg width="20" height="20" viewBox="0 0 20 20" fill="none" xmlns="http://www.w3.org/2000/svg">
<path d="M10 5.08691L10.3536 4.73336L10 4.3798L9.64645 4.73336L10 5.08691ZM2.65217 12.4347L2.29862 12.0812L2.18077 12.199L2.1572 12.364L2.65217 12.4347ZM2 17L1.50503 16.9292L1.41074 17.5892L2.07071 17.4949L2 17ZM6.56522 16.3478L6.63593 16.8428L6.80092 16.8192L6.91877 16.7013L6.56522 16.3478ZM13.913 8.99995L14.2666 9.35351L14.6202 8.99995L14.2666 8.6464L13.913 8.99995ZM9.64645 4.73336L2.29862 12.0812L3.00573 12.7883L10.3536 5.44046L9.64645 4.73336ZM2.1572 12.364L1.50503 16.9292L2.49497 17.0707L3.14715 12.5054L2.1572 12.364ZM2.07071 17.4949L6.63593 16.8428L6.49451 15.8528L1.92929 16.505L2.07071 17.4949ZM6.91877 16.7013L14.2666 9.35351L13.5595 8.6464L6.21166 15.9942L6.91877 16.7013ZM14.2666 8.6464L10.3536 4.73336L9.64645 5.44046L13.5595 9.35351L14.2666 8.6464Z" fill="#666666"/>
<path d="M10 5.087L11.1304 3.95656C12.211 2.87599 13.9629 2.87597 15.0435 3.95653C16.124 5.03708 16.124 6.789 15.0435 7.86955L13.913 9L10 5.087Z" fill="#D3E0FF"/>
<path d="M11.1304 3.95656L11.484 4.31011L11.1304 3.95656ZM10 5.087L9.64644 4.73346L9.2929 5.08701L9.64645 5.44056L10 5.087ZM13.913 9L13.5595 9.35355L13.913 9.70711L14.2666 9.35355L13.913 9ZM15.0435 7.86955L15.397 8.22311L15.0435 7.86955ZM15.0435 3.95653L14.6899 4.31009L15.0435 3.95653ZM10.7769 3.60301L9.64644 4.73346L10.3536 5.44055L11.484 4.31011L10.7769 3.60301ZM14.2666 9.35355L15.397 8.22311L14.6899 7.516L13.5595 8.64645L14.2666 9.35355ZM14.2666 8.64645L10.3536 4.73345L9.64645 5.44056L13.5595 9.35355L14.2666 8.64645ZM15.397 8.22311C16.6728 6.94729 16.6728 4.87879 15.397 3.60298L14.6899 4.31009C15.5752 5.19538 15.5752 6.63071 14.6899 7.516L15.397 8.22311ZM11.484 4.31011C12.3693 3.4248 13.8046 3.42479 14.6899 4.31009L15.397 3.60298C14.1212 2.32716 12.0527 2.32717 10.7769 3.60301L11.484 4.31011Z" fill="#5551FF"/>
<path d="M1.5 17.5H18" stroke="#5551FF"/>
</svg>
